<mxfile host="app.diagrams.net" modified="2023-05-26T16:37:18.321Z" agent="Mozilla/5.0 (Windows NT 10.0; Win64; x64) AppleWebKit/537.36 (KHTML, like Gecko) Chrome/113.0.0.0 Safari/537.36" etag="kKIWGtH96x2QsmrDCbpL" version="21.3.4" type="github">
  <diagram name="Pagina-1" id="XelewtZtj219z6SGosOk">
    <mxGraphModel dx="2267" dy="760" grid="1" gridSize="10" guides="1" tooltips="1" connect="1" arrows="1" fold="1" page="1" pageScale="1" pageWidth="827" pageHeight="1169" math="0" shadow="0">
      <root>
        <mxCell id="0" />
        <mxCell id="1" parent="0" />
        <mxCell id="3rxIZ3x0LvKWzajLlabY-4" value="" style="rounded=0;whiteSpace=wrap;html=1;" vertex="1" parent="1">
          <mxGeometry x="53" width="387" height="580" as="geometry" />
        </mxCell>
        <mxCell id="3rxIZ3x0LvKWzajLlabY-1" value="" style="rounded=0;whiteSpace=wrap;html=1;" vertex="1" parent="1">
          <mxGeometry x="440" width="387" height="580" as="geometry" />
        </mxCell>
        <mxCell id="3rxIZ3x0LvKWzajLlabY-34" style="edgeStyle=orthogonalEdgeStyle;rounded=0;orthogonalLoop=1;jettySize=auto;html=1;entryX=1;entryY=0.5;entryDx=0;entryDy=0;" edge="1" parent="1" source="3rxIZ3x0LvKWzajLlabY-22" target="3rxIZ3x0LvKWzajLlabY-11">
          <mxGeometry relative="1" as="geometry">
            <Array as="points">
              <mxPoint x="1020" y="160" />
            </Array>
          </mxGeometry>
        </mxCell>
        <mxCell id="3rxIZ3x0LvKWzajLlabY-22" value="" style="rounded=1;whiteSpace=wrap;html=1;" vertex="1" parent="1">
          <mxGeometry x="960" y="45" width="120" height="60" as="geometry" />
        </mxCell>
        <mxCell id="3rxIZ3x0LvKWzajLlabY-2" value="PAPUAudioProcessor" style="text;html=1;align=center;verticalAlign=middle;resizable=0;points=[];autosize=1;strokeColor=none;fillColor=none;" vertex="1" parent="1">
          <mxGeometry x="563.5" width="140" height="30" as="geometry" />
        </mxCell>
        <mxCell id="3rxIZ3x0LvKWzajLlabY-24" style="edgeStyle=orthogonalEdgeStyle;rounded=0;orthogonalLoop=1;jettySize=auto;html=1;entryX=0;entryY=0.5;entryDx=0;entryDy=0;" edge="1" parent="1" source="3rxIZ3x0LvKWzajLlabY-3" target="3rxIZ3x0LvKWzajLlabY-22">
          <mxGeometry relative="1" as="geometry" />
        </mxCell>
        <mxCell id="3rxIZ3x0LvKWzajLlabY-3" value="Parameter List" style="rounded=1;whiteSpace=wrap;html=1;" vertex="1" parent="1">
          <mxGeometry x="573.5" y="60" width="120" height="30" as="geometry" />
        </mxCell>
        <mxCell id="3rxIZ3x0LvKWzajLlabY-5" value="PAPUAudioProcessorEditor" style="text;html=1;strokeColor=none;fillColor=none;align=center;verticalAlign=middle;whiteSpace=wrap;rounded=0;" vertex="1" parent="1">
          <mxGeometry x="159.75" width="173.5" height="30" as="geometry" />
        </mxCell>
        <mxCell id="3rxIZ3x0LvKWzajLlabY-28" style="edgeStyle=orthogonalEdgeStyle;rounded=0;orthogonalLoop=1;jettySize=auto;html=1;" edge="1" parent="1" source="3rxIZ3x0LvKWzajLlabY-11" target="3rxIZ3x0LvKWzajLlabY-27">
          <mxGeometry relative="1" as="geometry" />
        </mxCell>
        <mxCell id="3rxIZ3x0LvKWzajLlabY-29" value="true" style="edgeLabel;html=1;align=center;verticalAlign=middle;resizable=0;points=[];" vertex="1" connectable="0" parent="3rxIZ3x0LvKWzajLlabY-28">
          <mxGeometry x="-0.161" y="4" relative="1" as="geometry">
            <mxPoint x="28" y="-4" as="offset" />
          </mxGeometry>
        </mxCell>
        <mxCell id="3rxIZ3x0LvKWzajLlabY-35" style="edgeStyle=orthogonalEdgeStyle;rounded=0;orthogonalLoop=1;jettySize=auto;html=1;entryX=1;entryY=0.75;entryDx=0;entryDy=0;" edge="1" parent="1" source="3rxIZ3x0LvKWzajLlabY-11" target="3rxIZ3x0LvKWzajLlabY-30">
          <mxGeometry relative="1" as="geometry">
            <Array as="points">
              <mxPoint x="247" y="265" />
            </Array>
          </mxGeometry>
        </mxCell>
        <mxCell id="3rxIZ3x0LvKWzajLlabY-36" value="false" style="edgeLabel;html=1;align=center;verticalAlign=middle;resizable=0;points=[];" vertex="1" connectable="0" parent="3rxIZ3x0LvKWzajLlabY-35">
          <mxGeometry x="0.6286" y="1" relative="1" as="geometry">
            <mxPoint x="35" as="offset" />
          </mxGeometry>
        </mxCell>
        <mxCell id="3rxIZ3x0LvKWzajLlabY-11" value="Is knob" style="rhombus;whiteSpace=wrap;html=1;" vertex="1" parent="1">
          <mxGeometry x="206.5" y="120" width="80" height="80" as="geometry" />
        </mxCell>
        <mxCell id="3rxIZ3x0LvKWzajLlabY-19" value="gin::Parameter" style="text;html=1;strokeColor=none;fillColor=none;align=center;verticalAlign=middle;whiteSpace=wrap;rounded=0;" vertex="1" parent="1">
          <mxGeometry x="970" y="60" width="99" height="30" as="geometry" />
        </mxCell>
        <mxCell id="3rxIZ3x0LvKWzajLlabY-45" style="edgeStyle=orthogonalEdgeStyle;rounded=0;orthogonalLoop=1;jettySize=auto;html=1;entryX=0.5;entryY=0;entryDx=0;entryDy=0;" edge="1" parent="1" source="3rxIZ3x0LvKWzajLlabY-27" target="3rxIZ3x0LvKWzajLlabY-44">
          <mxGeometry relative="1" as="geometry">
            <Array as="points">
              <mxPoint x="400" y="75" />
              <mxPoint x="400" y="130" />
              <mxPoint x="633" y="130" />
            </Array>
          </mxGeometry>
        </mxCell>
        <mxCell id="3rxIZ3x0LvKWzajLlabY-27" value="gin::Knob" style="rounded=1;whiteSpace=wrap;html=1;" vertex="1" parent="1">
          <mxGeometry x="-140" y="45" width="120" height="60" as="geometry" />
        </mxCell>
        <mxCell id="3rxIZ3x0LvKWzajLlabY-47" style="edgeStyle=orthogonalEdgeStyle;rounded=0;orthogonalLoop=1;jettySize=auto;html=1;entryX=0.5;entryY=1;entryDx=0;entryDy=0;" edge="1" parent="1" source="3rxIZ3x0LvKWzajLlabY-30" target="3rxIZ3x0LvKWzajLlabY-44">
          <mxGeometry relative="1" as="geometry">
            <Array as="points">
              <mxPoint x="-80" y="310" />
              <mxPoint x="633" y="310" />
            </Array>
          </mxGeometry>
        </mxCell>
        <mxCell id="3rxIZ3x0LvKWzajLlabY-30" value="gin::Switch" style="rounded=1;whiteSpace=wrap;html=1;" vertex="1" parent="1">
          <mxGeometry x="-140" y="220" width="120" height="60" as="geometry" />
        </mxCell>
        <mxCell id="3rxIZ3x0LvKWzajLlabY-37" value="Scope" style="rounded=1;whiteSpace=wrap;html=1;" vertex="1" parent="1">
          <mxGeometry x="186.5" y="340" width="120" height="60" as="geometry" />
        </mxCell>
        <mxCell id="3rxIZ3x0LvKWzajLlabY-43" style="edgeStyle=orthogonalEdgeStyle;rounded=0;orthogonalLoop=1;jettySize=auto;html=1;" edge="1" parent="1" source="3rxIZ3x0LvKWzajLlabY-39" target="3rxIZ3x0LvKWzajLlabY-37">
          <mxGeometry relative="1" as="geometry" />
        </mxCell>
        <mxCell id="3rxIZ3x0LvKWzajLlabY-39" value="gin::TriggerdScope" style="rounded=1;whiteSpace=wrap;html=1;" vertex="1" parent="1">
          <mxGeometry x="-140" y="340" width="120" height="60" as="geometry" />
        </mxCell>
        <mxCell id="3rxIZ3x0LvKWzajLlabY-42" style="edgeStyle=orthogonalEdgeStyle;rounded=0;orthogonalLoop=1;jettySize=auto;html=1;entryX=0.5;entryY=1;entryDx=0;entryDy=0;" edge="1" parent="1" source="3rxIZ3x0LvKWzajLlabY-41" target="3rxIZ3x0LvKWzajLlabY-39">
          <mxGeometry relative="1" as="geometry">
            <Array as="points">
              <mxPoint x="633" y="490" />
              <mxPoint x="-80" y="490" />
            </Array>
          </mxGeometry>
        </mxCell>
        <mxCell id="3rxIZ3x0LvKWzajLlabY-41" value="fifoBuffer" style="rounded=1;whiteSpace=wrap;html=1;" vertex="1" parent="1">
          <mxGeometry x="573.5" y="350" width="120" height="60" as="geometry" />
        </mxCell>
        <mxCell id="3rxIZ3x0LvKWzajLlabY-44" value="parameterIntValue" style="rounded=1;whiteSpace=wrap;html=1;" vertex="1" parent="1">
          <mxGeometry x="573.5" y="220" width="120" height="60" as="geometry" />
        </mxCell>
        <mxCell id="3rxIZ3x0LvKWzajLlabY-51" value="" style="endArrow=none;dashed=1;html=1;dashPattern=1 3;strokeWidth=2;rounded=0;entryX=1;entryY=0.431;entryDx=0;entryDy=0;entryPerimeter=0;" edge="1" parent="1" target="3rxIZ3x0LvKWzajLlabY-1">
          <mxGeometry width="50" height="50" relative="1" as="geometry">
            <mxPoint x="700" y="250" as="sourcePoint" />
            <mxPoint x="750" y="200" as="targetPoint" />
          </mxGeometry>
        </mxCell>
        <mxCell id="3rxIZ3x0LvKWzajLlabY-52" value="returns the parameters" style="edgeLabel;html=1;align=center;verticalAlign=middle;resizable=0;points=[];" vertex="1" connectable="0" parent="3rxIZ3x0LvKWzajLlabY-51">
          <mxGeometry x="-0.0888" y="3" relative="1" as="geometry">
            <mxPoint y="-7" as="offset" />
          </mxGeometry>
        </mxCell>
      </root>
    </mxGraphModel>
  </diagram>
</mxfile>
